<?xml version="1.0" encoding="UTF-8" standalone="no"?>
<svg
   xmlns:dc="http://purl.org/dc/elements/1.1/"
   xmlns:cc="http://creativecommons.org/ns#"
   xmlns:rdf="http://www.w3.org/1999/02/22-rdf-syntax-ns#"
   xmlns:svg="http://www.w3.org/2000/svg"
   xmlns="http://www.w3.org/2000/svg"
   xmlns:sodipodi="http://sodipodi.sourceforge.net/DTD/sodipodi-0.dtd"
   xmlns:inkscape="http://www.inkscape.org/namespaces/inkscape"
   inkscape:version="1.0 (4035a4f, 2020-05-01)"
   sodipodi:docname="img-empty-dark-multisend.svg"
   version="1.1"
   viewBox="0 0 100 100"
   height="100"
   width="100"
   id="ic_empty_dark_multisend">
  <metadata
     id="metadata35">
    <rdf:RDF>
      <cc:Work
         rdf:about="">
        <dc:format>image/svg+xml</dc:format>
        <dc:type
           rdf:resource="http://purl.org/dc/dcmitype/StillImage" />
      </cc:Work>
    </rdf:RDF>
  </metadata>
  <sodipodi:namedview
     inkscape:current-layer="ic_empty_dark_multisend"
     inkscape:window-maximized="0"
     inkscape:window-y="23"
     inkscape:window-x="0"
     inkscape:cy="50"
     inkscape:cx="50"
     inkscape:zoom="6.18"
     showgrid="false"
     id="namedview33"
     inkscape:window-height="851"
     inkscape:window-width="1229"
     inkscape:pageshadow="2"
     inkscape:pageopacity="0"
     guidetolerance="10"
     gridtolerance="10"
     objecttolerance="10"
     borderopacity="1"
     bordercolor="#666666"
     pagecolor="#ffffff" />
  <defs
     id="defs12">
    <style
       id="style10"
       type="text/css">
            .cls-1{fill:#413d4a}.cls-2{fill:#a09ea5}.cls-3{fill:none}
        </style>
  </defs>
  <g
     id="g82">
    <g
       data-name="Group 9060"
       id="Group_9060">
      <path
         transform="translate(45,18)"
         data-name="Rectangle 4717"
         class="cls-1"
         d="M 0,0 H 10 V 9 H 0 Z"
         id="Rectangle_4717" />
      <g
         data-name="Group 9059"
         id="Group_9059">
        <path
           transform="translate(14,66)"
           data-name="Rectangle 4718"
           class="cls-1"
           d="M 0,0 H 6 V 10 H 0 Z"
           id="Rectangle_4718" />
        <path
           transform="translate(80,66)"
           data-name="Rectangle 4719"
           class="cls-1"
           d="M 0,0 H 6 V 10 H 0 Z"
           id="Rectangle_4719" />
        <path
           transform="translate(47,66)"
           data-name="Rectangle 4720"
           class="cls-1"
           d="M 0,0 H 6 V 10 H 0 Z"
           id="Rectangle_4720" />
      </g>
    </g>
    <path
       id="Rectangle_4722"
       d="m 67,40 h 2 v 4 h -2 z"
       class="cls-2"
       data-name="Rectangle 4722" />
    <circle
       id="Ellipse_643"
       cx="50"
       cy="73"
       r="1"
       class="cls-2"
       data-name="Ellipse 643" />
    <circle
       id="Ellipse_644"
       cx="83"
       cy="73"
       r="1"
       class="cls-2"
       data-name="Ellipse 644" />
    <path
       id="Rectangle_4723"
       d="m 32,58 h 4 v 2 h -4 z"
       class="cls-2"
       data-name="Rectangle 4723" />
    <path
       id="Path_19007"
       d="m 16,65 h -3 v 3 H 7 v 4 h 2 v -2 h 4 v 7 h 8 v -7 h 4 V 91 H 9 V 76 H 7 V 93 H 27 V 68 H 21 V 65 H 18 V 60 H 28 V 58 H 16 Z m 3,2 v 8 h -4 v -8 z"
       class="cls-2"
       data-name="Path 19007" />
    <circle
       id="Ellipse_645"
       cx="17"
       cy="73"
       r="1"
       class="cls-2"
       data-name="Ellipse 645" />
    <path
       id="Path_19008"
       d="M 87,68 V 65 H 84 V 58 H 51 v -5 h 18 v -5 h -2 v 3 H 33 V 28 h 34 v 8 h 2 v -8 h 4 V 17 H 59.46 A 5.994,5.994 0 1 0 50,9.69 5.995,5.995 0 1 0 40.54,17 H 27 v 11 h 4 v 25 h 18 v 5 h -9 v 2 h 9 v 5 h -3 v 3 h -6 v 16 h 2 V 70 h 4 v 7 h 8 v -7 h 4 V 91 H 42 v -3 h -2 v 5 H 60 V 68 h -6 v -3 h -3 v -5 h 31 v 5 h -3 v 3 h -6 v 12 h 2 V 70 h 4 v 7 h 8 v -7 h 4 V 91 H 75 v -7 h -2 v 9 H 93 V 68 Z M 71,19 v 7 H 56 V 19 Z M 51,13 a 4,4 0 1 1 4,4 h -4 z m 0,6 h 3 v 7 H 46 V 19 Z M 45,9 a 4,4 0 0 1 4,4 v 4 H 45 A 4,4 0 0 1 45,9 Z M 29,26 v -7 h 15 v 7 z m 23,41 v 8 h -4 v -8 z m 33,8 h -4 v -8 h 4 z"
       class="cls-2"
       data-name="Path 19008" />
    <path
       id="Rectangle_4724"
       d="M0 0h100v100H0z"
       class="cls-3"
       data-name="Rectangle 4724" />
    <text
       xml:space="preserve"
       style="font-style:normal;font-variant:normal;font-weight:bold;font-stretch:normal;font-size:13.33329999999999949px;line-height:1.25;font-family:sans-serif;-inkscape-font-specification:'sans-serif, Bold';font-variant-ligatures:normal;font-variant-caps:normal;font-variant-numeric:normal;font-variant-east-asian:normal;fill:#a09ea5;fill-opacity:1;stroke:none;"
       x="35.275082"
       y="44.498383"
       id="text64"><tspan
         sodipodi:role="line"
         id="tspan62"
         x="35.275082"
         y="44.498383">VPC</tspan></text>
  </g>
</svg>
