/* XPM */
static char *_596996616440[] = {
/* columns rows colors chars-per-pixel */
"64 64 188 2 ",
"   c #010101",
".  c #0B0B09",
"X  c #180E0E",
"o  c #14130F",
"O  c #151410",
"+  c #1B1212",
"@  c #1F1D18",
"#  c #1B1A14",
"$  c #211714",
"%  c #261C19",
"&  c #3A0C0C",
"*  c #27251E",
"=  c #2D2B22",
"-  c #322C25",
";  c #343026",
":  c #3B332A",
">  c #37352A",
",  c #5E0000",
"<  c #640100",
"1  c #6C0000",
"2  c #730000",
"3  c #7C0000",
"4  c #7E0806",
"5  c #791A15",
"6  c #40352C",
"7  c #463E33",
"8  c #762A21",
"9  c #7A2A21",
"0  c #7E362A",
"q  c #444032",
"w  c #494436",
"e  c #4D4639",
"r  c #4D4A3A",
"t  c #544C3E",
"y  c #51463A",
"u  c #595443",
"i  c #5E5847",
"p  c #565140",
"a  c #625D4A",
"s  c #655B49",
"d  c #6A634E",
"f  c #66624E",
"g  c #6C6551",
"h  c #6C6851",
"j  c #746D56",
"k  c #756F59",
"l  c #767059",
"z  c #7B745C",
"x  c #7F795F",
"c  c #830000",
"v  c #8B0101",
"b  c #800B09",
"n  c #940000",
"m  c #9C0000",
"M  c #80110E",
"N  c #991712",
"B  c #A30100",
"V  c #AC0100",
"C  c #A40B08",
"Z  c #B40000",
"A  c #BC0000",
"S  c #A3130F",
"D  c #B8100C",
"F  c #B91F19",
"G  c #A31C17",
"H  c #B1241C",
"J  c #982B22",
"K  c #99372B",
"L  c #AA2E25",
"P  c #BB2D24",
"I  c #A03026",
"U  c #BA3B2F",
"Y  c #AF3D31",
"T  c #C30000",
"R  c #CC0000",
"E  c #CE0C0A",
"W  c #D30000",
"Q  c #DA0000",
"!  c #DE0806",
"~  c #D2130F",
"^  c #E30000",
"/  c #EB0000",
"(  c #F40000",
")  c #FC0000",
"_  c #F90B09",
"`  c #EC1D17",
"'  c #C9231B",
"]  c #D7231B",
"[  c #E7231B",
"{  c #C72C23",
"}  c #DD2A21",
"|  c #D6352B",
" . c #C93329",
".. c #E12A21",
"X. c #EF2A21",
"o. c #F12A21",
"O. c #E2382D",
"+. c #994537",
"@. c #A84033",
"#. c #BB4839",
"$. c #C64335",
"%. c #D2493A",
"&. c #E14032",
"*. c #F4493A",
"=. c #AB5A47",
"-. c #B45946",
";. c #A26450",
":. c #BC745D",
">. c #A7715A",
",. c #827B62",
"<. c #887E65",
"1. c #B97A61",
"2. c #C44F40",
"3. c #D55846",
"4. c #D6634F",
"5. c #D46D56",
"6. c #C6715A",
"7. c #CA735C",
"8. c #D17059",
"9. c #F3624E",
"0. c #E76E58",
"q. c #4E8C26",
"w. c #4F8C28",
"e. c #518E26",
"r. c #518F29",
"t. c #509027",
"y. c #549529",
"u. c #569A2B",
"i. c #599E2B",
"p. c #5AA02C",
"a. c #878166",
"s. c #898267",
"d. c #8C8469",
"f. c #8F886C",
"g. c #928B6E",
"h. c #92866B",
"j. c #958E71",
"k. c #998F72",
"l. c #9D9476",
"z. c #9F9778",
"x. c #9C9575",
"c. c #A49B7B",
"v. c #A89D7E",
"b. c #A09577",
"n. c #B69173",
"m. c #A9A07F",
"M. c #D3866A",
"N. c #D98F71",
"B. c #C89677",
"V. c #D19375",
"C. c #DB9779",
"Z. c #E6886C",
"A. c #E69173",
"S. c #C7A17F",
"D. c #AA9F80",
"F. c #ADA382",
"G. c #B1A684",
"H. c #B4AB87",
"J. c #B6AC89",
"K. c #B9AE8B",
"L. c #BCB28E",
"P. c #DBA987",
"I. c #DBAD89",
"U. c #C1B68F",
"Y. c #D8B28D",
"T. c #C0B690",
"R. c #C5BB94",
"E. c #C9BE97",
"W. c #C9BE99",
"Q. c #DCB892",
"!. c #E2A986",
"~. c #E3BC96",
"^. c #CEC29A",
"/. c #D2C79E",
"(. c #D4C99F",
"). c #DBC69D",
"_. c #E3C59D",
"`. c #E9C39B",
"'. c #D6CAA1",
"]. c #D9CEA3",
"[. c #DED1A6",
"{. c #E4CCA2",
"}. c #E2D3A7",
"|. c #E2D5A9",
" X c #E5D9AC",
".X c #E9DDAF",
"XX c #E8D1A6",
"oX c None",
/* pixels */
"oXoXoXoXoXoXoXoXoXoXoXoXoXoXoXoXoXoXoXoXoXoXoXoXoXoXy.u.u.u.i.p.p.i.i.y.u.y.oXoXoXoXoXoXoXoXoXoXoXoXoXoXoXoXoXoXoXoXoXoXoXoXoXoX",
"oXoXoXoXoXoXoXoXoXoXoXoXoXoXoXoXoXoXoXoXoXoXy.u.p.i.u.u.oXoXoXoXoXoXoXoXu.u.i.i.u.u.oXoXoXoXoXoXoXoXoXoXoXoXoXoXoXoXoXoXoXoXoXoX",
"oXoXoXoXoXoXoXoXoXoXoXoXoXoXoXoXoXoXoXoXu.i.u.oXoXoXoXoXl ,.a.a.j.s.,.l oXoXoXoXoXu.p.u.oXoXoXoXoXoXoXoXoXoXoXoXoXoXoXoXoXoXoXoX",
"oXoXoXoXoXoXoXoXoXoXoXoXoXoXoXoXoXy.p.u.u.oXoXk c.}..X.X.X.X.Xz R..X.X.X.X.X}.v.j oXoXy.u.i.y.oXoXoXoXoXoXoXoXoXoXoXoXoXoXoXoXoX",
"oXoXoXoXoXoXoXoXoXoXoXoXoXoXoXoXu.p.oXoXoXG..X.X.X.X.X.X.X.XG.W.l..X.X.X.X.X.X.X.X.XH.h oXoXu.u.oXoXoXoXoXoXoXoXoXoXoXoXoXoXoXoX",
"oXoXoXoXoXoXoXoXoXoXoXoXoXoXu.i.u.oXj (..XF. X.X.X.X.X.X(.H.g..XU.g.F.R.[..X.X.X.Xf.^..X'.j oXy.i.u.oXoXoXoXoXoXoXoXoXoXoXoXoXoX",
"oXoXoXoXoXoXoXoXoXoXoXoXoXi.u.oXoX^..X.X.Xj.g.^.F.L..Xl F.'..X.X.X.X].,.E..Xj.z.g.L.F..X.X.X(.f oXu.i.oXoXoXoXoXoXoXoXoXoXoXoXoX",
"oXoXoXoXoXoXoXoXoXoXoXy.i.t.oXv..X.X.X.X[.z. XK.c.^..X Xg.]..X.X.X.Xv.R..X.Xx.[. X.Xf.R..X.X.X.Xm.oXe.i.t.oXoXoXoXoXoXoXoXoXoXoX",
"oXoXoXoXoXoXoXoXoXoXu.i.oXoX'..X.X.X.Xl.c. X.X.Xk..X.X.X Xj..X.X.X(.m..X.X.X[.c..X.X}.z L..X.X.X.X/.oXoXp.y.oXoXoXoXoXoXoXoXoXoX",
"oXoXoXoXoXoXoXoXoXu.i.oXh  X X.X}.]..X^.j.L..X.Xc.[..X.X.Xc..X]. X.Xx..X.X.Xc.].}..Xd.[..X(.,.m.l ]..Xj oXi.y.oXoXoXoXoXoXoXoXoX",
"oXoXoXoXoXoXoXoXy.i.oXz .X Xj j.,.R..X.X.Xz.L.j.l.x..X.X.Xl.c.c.l.m.l..X.X.Xg.b.l.L.c..X.X.Xz.(.c. X.X.X,.oXi.y.oXoXoXoXoXoXoXoX",
"oXoXoXoXoXoXoXt.i.oX,..X.X.Xx..XK.L..X.X.Xj.m..X.X.X.X.X].f.}..X.X].l..X.X.X.X.X Xv.L..X.Xm.R..X(.z ]..X.Xd.oXi.y.oXoXoXoXoXoXoX",
"oXoXoXoXoXoXoXp.oXh .X.X.Xg.F. XR.j /..X.X[..X.X.X.X.X.X.X.X.X.X.X.X.X.X.X.X.X.X.X.X.X.X.Xm.l.F.d.E..X.X.X.Xl oXp.oXoXoXoXoXoXoX",
"oXoXoXoXoXoXp.t.oX.X.X.X.X'.R.j.l..X.X.X.X.X.X.X.X.X.X.X.X.X.X.X.X.X.X.X.X.X.X.X.X.X.X.X.X.X.Xd.]..X.X.X.X.X.XoXt.i.oXoXoXoXoXoX",
"oXoXoXoXoXu.u.oX[..X.X.X.X.X.Xm.]..X.X.X.X.X.X.X.X.X.X.X.X.X.X.X.X.X.X.X.X.X.X.X.X.X.X.X.X.X.X.X.X.X.X.X.X.X.X[.oXu.u.oXoXoXoXoX",
"oXoXoXoXoXp.oXG..X] Q Q Q ^ O.{..X.X.X.X.X.X.X.X.X.X.X.X.X.X*._ Q + X X X X X X X X X X X X X X X % : g R..X.X.XH.oXp.oXoXoXoXoX",
"oXoXoXoXi.t.h .X.X] W W W Q Q &..X.X.X.X.X.X.X.X.X.X.X.X.X9.) ) ) b X X X X X X X X X X X X X X X X X X + s XX.X.Xs t.i.oXoXoXoX",
"oXoXoXy.i.oX]..X.X' R W W W W W } ......0..X.X.X.XZ.X.o.X._ ( ) ) ( & X X X X X X X X X X X X X X X X X X X : ]..X}.oXi.y.oXoXoX",
"oXoXoXi.oXx .X.X.X' T R R R R W W W Q Q Z..X.X.X.X[ / / / ( / ( ) ( A X X X X X X X X X X X X X X X X X X X X 7 .X.X,.oXi.oXoXoX",
"oXoXoXi.oX[..X.X.XN.3.T T R R R R W W W _..X.X.XA.^ ^ ^ ^ / / / ( ( *.=.<.s X X X X X <.h.<.h.<.g : X X X X X X b..X}.oXi.oXoXoX",
"oXoXu.y.j .X.X.X.X.X.X .T T T T R R R ~ .X.X.X.X} Q Q ^ ^ ^ / / / ` .X.X.Xz.X X X X X }..X.X.X.X.X.X,.X X X X X : .X.Xz t.i.oXoX",
"oXoXi.oXR..X.X.X.X.X.XM.A A T A T T T | .X.X.X!.W W Q Q Q Q ^ ^ ^ 0..X.X.Xz.X X 7 p p |..X.X.X.X.X.X.Xy X X X X + ]..X^.oXp.oXoX",
"oXy.u.oX.X.X.X.X.X.X.X XD Z A A A T T 4..X.X.X| R W W W Q Q Q Q ^ `..X.X.Xz.X $ [..X X.X.X.X.X.X.X.X.Xb.X X X X X D..X.XoXu.y.oX",
"oXu.y.,..X.X.X.X.X.X.X.X2.Z Z Z Z A A C..X.XI.R R E 3.R W W W W | .X.X.X.Xz.X X + $ $ {..X.X.X.X.X.X.XW.X X X X X h..X.X,.t.i.oX",
"oXp.oXL..X.X.X.X.X.X.X.XI.V Z Z Z Z A XX.X.X$.T %._.5.R R R W W Z..X.X.X.Xl.X X X X X [..X.X.X.X.X.X.XW.X X X X X h..X.XR.oXp.oX",
"oXu.oX.X.X.X.X.X.X.X.X.X.XH B V V V H .X.XQ.{ !..X.X{ T T R R E  X.X.X.X.Xz.X + <.l.l. X.X.X.X.X.X.X.Xb.X X X X X c..X.X.XoXi.oX",
"y.u.oX.X.X.X.X.X.X.X.X.X.X6.B B V V $..X.XXX.X.X.X_.T A T T T %..X.X.X.X.Xb.X + <.l.l. X.X.X.X.X.X.X.Xt X X X X X ]..X.X.XoXu.oX",
"u.u.l .X.X.X.X.X.X.X.X.X.X_.C B B B 7..X.X}.M.~..X8.Z A A A T P..X.X.X.X.Xb.X X X X X [..X.X.X.X.X.X<.X X X X X 6 .X.X.X.Xl y.u.",
"u.oX,..X.X.X.X.X.X.X.X.X.X.XY m m m P.B.#.C V Q..XP Z Z Z Z ' .X.X.X.X.X.Xz.X X X X X n.G.G.v.c.<.7 + X X X X X k..X.X.X.Xs.t.u.",
"u.oXx..X.X.X.X.X.X.X.X.X.X.XB.n n m C m B B B XX_.V V V Z Z 5..X.X.X.X.X.Xz.X X X X X X X X + X X X X X X X X 7 .X.X.X.X.Xv.oXu.",
"u.oXF..X.X.X.X.X.X.X.X.X.X.X.XN n n n n m m C .X6.B V V V V {..X.X.X.X.X Xz.X X X X X X X X X X X X X X X X - ]..X.X.X.X.XH.oXu.",
"u.oXL..X.X.X.X.X.X.X.X.X.X.X.X-.v n n n n m G .XL B B B B U .X.X.X.X.X.X.Xl.X X X X X X X X X X X X X X X y ]..X.X.X.X.X.XR.oXu.",
"i.oXL..X.X.X.X.X.X.X.X.X.X.X.XQ.v v v v v n L {.m m m m m V..X.X.X.X.X.X.Xz.X X X X X X X X X X X X % p G..X.X.X.X.X.X.X.XR.oXi.",
"u.oXH..X.X.X.X.X.X.X.X.X.X.X.X.XJ c c v v c Y :.v n m n S  X.X.X.X.X.X.X.Xb.X X X X X K.T.T.T.T.T.]..X.X.X.X.X.X.X.X.X.X.XK.oXu.",
"i.oXz..X.X.X.X.X.X.X.X.X.X.X.X.X1.3 3 c c v =.I v n n n -..X.X.X.X.X.X.X Xz.X X X X X [..X.X.X.X.X.X.X.X.X.X.X.X.X.X.X.X.XD.oXu.",
"u.t.a..X.X.X.X.X.X.X.X.X.X.X.X.X X4 3 3 3 c =.v c v v n Y..X.X.X.X.X.X.X.Xz.X X X X X }..X.X.X.X.X.X.X.X.X.X.X.X.X.X.X.X.Xd.r.y.",
"u.u.l .X.X.X.X.X.X.X.X.X.X.X.X.X.X+.2 3 3 3 K c c c c J .X.X.X.X.X.X.X.X.Xz.X X X X X [..X.X.X.X.X.X.X.X.X.X.X.X.X.X.X.X.Xz u.y.",
"t.u.oX.X.X.X.X.X.X.X.X.X.X.X.X.X.XS.1 2 2 2 M 3 3 c c :..X.X.X.X.X.X.X.X.Xb.X X X X X [..X.X.X.X.X.X.X.X.X.X.X.X.X.X.X.X.XoXu.oX",
"oXi.oX.X.X.X.X.X.X.X.X.X.X.X.X.X.X.X5 1 1 2 2 2 3 2 4 {..X.X.X.X.X.X.X.X.Xl.X X X X X [..X.X.X.X.X.X.X.X.X.X.X.X.X.X.X.X.XoXi.oX",
"oXi.oXW..X.X.X.X.X.X.X.X.X.X.X.X.X.X;.1 1 1 1 1 2 2 +..X.X.X.X.X.X.X.X.X.Xz.X X X X X }..X.X.X.X.X.X.X.X.X.X.X.X.X.X.X.X^.oXi.oX",
"oXu.w.a..X.X.X.X.X.X.X.X.X.X.X.X.X.X].< < < < 1 1 1 B..X.X.X.X.X.X.X.X.X.Xz.X X X X X [..X.X.X.X.X.X.X.X.X.X.X.X.X.X.X.Xd.y.u.oX",
"oXy.u.oX.X.X.X.X.X.X.X.X.X.X.X.X.X.X.X0 , < < < < 5 .X.X.X.X.X.X.X.X.X.X.Xz.X X X X X }..X.X.X.X.X.X.X.X.X.X.X.X.X.X.X.XoXu.u.oX",
"oXoXp.oX(..X.X.X.X.X.X.X.X.X.X.X.X.X.Xn.8 9 8 9 9 >..X.X.X.X.X.X.X.X.X.X.XG.6 6 6 6 : |..X.X.X.X.X.X.X.X.X.X.X.X.X.X.X'.oXi.oXoX",
"oXoXu.t.z .X.X.X.X.X.X.X.X.X.X.X.X.X.X.X.X.X.X.X.X.X.X.X.X.X.X.X.X.X.X.X.X.X.X.X.X.X.X.X.X.X.X.X.X.X.X.X.X.X.X.X.X.X.X,.e.u.oXoX",
"oXoXoXu.oX X.X.X.X.X.X.X.X.X.X.X.X.X.X.X.X.X.X.X.X.X.X.X.X.X.X.X.X.X.X.X.X.X.X.X.X.X.X.X.X.X.X.X.X.X.X.X.X.X.X.X.X.X XoXi.oXoXoX",
"oXoXoXi.oXd..X.X.X.X.X.X.X.X.X.X.X.X.X.X.X.X.X.X.X.X.X.X.X.X.X.X.X.X.X.X.X.X.X.X.X.X.X.X.X.X.X.X.X.X.X.X.X.X.X.X.X.Xd.oXi.oXoXoX",
"oXoXoXy.u.oX X.X.X.X.X.X.X.X.X X,.> > p i l  X.X.X.X.Xc.p f k a u R..X.X.XD.= z..XW.- K..X.X.X.X.Xu .X.X.X.X.X.X.X XoXi.y.oXoXoX",
"oXoXoXoXi.q.k .X.X.X.X.X.X.X[.= O j..X.X.Xv.; (..X.Xt O R..X.X.Xk.. ,. X.Xg.  <..XL.  . D..X.X.X.X; .X.X.X.X.X.X.Xz q.i.oXoXoXoX",
"oXoXoXoXoXi.oXR..X.X.X.X.X.Xq   v..X.X.X.X.XG.'..Xl   ,..X.X.X.X.Xw   K..Xg.  s..XL.q > . g..X.X.X; .X.X.X.X.X.XR.oXi.oXoXoXoXoX",
"oXoXoXoXoXu.u.oX X.X.X.X.X X  O .X.X.X.X.X.X.X.X.X=   R..X.X.X.X.Xz   i .Xg.  s..XL.w  Xw   z .X.X- .X.X.X.X.X XoXi.u.oXoXoXoXoX",
"oXoXoXoXoXoXi.e.f .X.X.X.X X  # .X.X.X.X.X.X.X.X.X*   R..X.X.X.X.Xx   u .Xh.  s..XL.w .X.Xu   a .X; .X.X.X.X.Xh q.i.oXoXoXoXoXoX",
"oXoXoXoXoXoXoXi.oXs..X.X.X.X-   K..X.X.X.X.X^. X.Xg   s..X.X.X.X.Xr   F..Xg.  s..XL.w .X.X.Xg   r ; .X.X.X.Xd.oXp.oXoXoXoXoXoXoX",
"oXoXoXoXoXoXoXoXi.oXl..X.X.XL.o @ T..X X.XL.= R..X X; @ '..X.X.XF.  h .X.Xj.  a..XL.w .X.X.X.Xx   - .X.X.Xc.oXi.y.oXoXoXoXoXoXoX",
"oXoXoXoXoXoXoXoXy.i.oXx..X.X.X(.u @ > p p u '..X.X.X.Xx 7 a k i q v..X.X.Xx.O j..XR.u .X.X.X.X.Xf.> .X.Xz.oXi.u.oXoXoXoXoXoXoXoX",
"oXoXoXoXoXoXoXoXoXy.p.oX,..X.X.X.X.X.X X.X.X.X.X.X.X.X.X.X.X.X.X.X.X.X.X.X.X.X.X.X.X.X.X.X.X.X.X.X[..Xg.oXu.u.oXoXoXoXoXoXoXoXoX",
"oXoXoXoXoXoXoXoXoXoXy.p.oXf  X.X.X.X.X.X.X.X.X.X.X.X.X.X.X.X.X.X.X.X.X.X.X.X.X.X.X.X.X.X.X.X.X.X.X Xh oXp.u.oXoXoXoXoXoXoXoXoXoX",
"oXoXoXoXoXoXoXoXoXoXoXy.p.q.oXR..X.X X/.^.L.L.^./.T.L.R./.W.L.L.^.'.L.L.L.L.L.L.L.L.L.^.L.^..X.XR.oXw.i.y.oXoXoXoXoXoXoXoXoXoXoX",
"oXoXoXoXoXoXoXoXoXoXoXoXoXi.u.oXk  X.X.X.X X.X.X.X.X.X.X.X/.s.j.x.a.l.F..X.X.X.X'.(.[..X'..X[.z oXu.i.oXoXoXoXoXoXoXoXoXoXoXoXoX",
"oXoXoXoXoXoXoXoXoXoXoXoXoXoXy.i.t.oXd. X^.R.R.R.R.E.R.R.E.L.g.x.j.d.c.K.'.R.R.R.^.(././.].f.oXq.p.u.oXoXoXoXoXoXoXoXoXoXoXoXoXoX",
"oXoXoXoXoXoXoXoXoXoXoXoXoXoXoXoXu.u.oXoXx (..X.X.X.X.X.X}.L.]..X.X.X XL.(..X.X.X.X.X'.,.oXoXi.i.oXoXoXoXoXoXoXoXoXoXoXoXoXoXoXoX",
"oXoXoXoXoXoXoXoXoXoXoXoXoXoXoXoXoXy.i.i.t.oXoXs.W..X.X.X.X.X^.R..XR.R..X.X.X.X^.s.oXoXe.i.i.oXoXoXoXoXoXoXoXoXoXoXoXoXoXoXoXoXoX",
"oXoXoXoXoXoXoXoXoXoXoXoXoXoXoXoXoXoXoXoXu.i.u.w.oXoXoXl s.F.K.L.v.H.F.d.l oXoXoXy.u.i.u.oXoXoXoXoXoXoXoXoXoXoXoXoXoXoXoXoXoXoXoX",
"oXoXoXoXoXoXoXoXoXoXoXoXoXoXoXoXoXoXoXoXoXoXy.u.i.i.u.u.t.oXoXoXoXoXoXt.u.u.i.i.u.y.oXoXoXoXoXoXoXoXoXoXoXoXoXoXoXoXoXoXoXoXoXoX",
"oXoXoXoXoXoXoXoXoXoXoXoXoXoXoXoXoXoXoXoXoXoXoXoXoXoXoXy.u.i.u.y.p.p.u.u.y.oXoXoXoXoXoXoXoXoXoXoXoXoXoXoXoXoXoXoXoXoXoXoXoXoXoXoX"
};
