/* XPM */
static char *_596996603367[] = {
/* columns rows colors chars-per-pixel */
"32 32 153 2 ",
"   c #180E0E",
".  c #14130F",
"X  c #1A1010",
"o  c #151410",
"O  c #210D0D",
"+  c #251B19",
"@  c #261C19",
"#  c #2F2520",
"$  c #2E2B23",
"%  c #322721",
"&  c #352A24",
"*  c #343127",
"=  c #3A372B",
"-  c #3B382D",
";  c #640000",
":  c #6D0302",
">  c #730000",
",  c #7C0000",
"<  c #791D17",
"1  c #43392F",
"2  c #493D33",
"3  c #762923",
"4  c #444033",
"5  c #4C4437",
"6  c #50453A",
"7  c #554C3E",
"8  c #5E7E39",
"9  c #5E5847",
"0  c #5C5746",
"q  c #615647",
"w  c #645847",
"e  c #665C4A",
"r  c #67604C",
"t  c #6D6350",
"y  c #756B56",
"u  c #7E745D",
"i  c #820000",
"p  c #8D0000",
"a  c #8B0B09",
"s  c #940000",
"d  c #9A0000",
"f  c #84110E",
"g  c #A50100",
"h  c #AD0000",
"j  c #AE0D0B",
"k  c #B20000",
"l  c #BC0000",
"z  c #A9100C",
"x  c #B91511",
"c  c #97221B",
"v  c #AC231B",
"b  c #9F372B",
"n  c #A72D24",
"m  c #AB3A2F",
"M  c #C50000",
"N  c #CC0101",
"B  c #D30000",
"V  c #DB0000",
"C  c #DA0D0A",
"Z  c #CD110E",
"A  c #D4130F",
"S  c #C81410",
"D  c #E30101",
"F  c #ED0000",
"G  c #F30000",
"H  c #FA0000",
"J  c #E91D17",
"K  c #CB211A",
"L  c #CB342A",
"P  c #CA3D30",
"I  c #9E4739",
"U  c #BD4F3F",
"Y  c #B54235",
"T  c #E14F3F",
"R  c #F14C3D",
"E  c #9E6450",
"W  c #9F6C55",
"Q  c #BA644F",
"!  c #B26E57",
"~  c #8B7F66",
"^  c #857A62",
"/  c #C45A47",
"(  c #E55645",
")  c #CB624E",
"_  c #D8604C",
"`  c #C06450",
"'  c #DA6E58",
"]  c #E36C55",
"[  c #E86853",
"{  c #F3725B",
"}  c #C07A61",
"|  c #4E8B26",
" . c #4B8324",
".. c #538E2A",
"X. c #529227",
"o. c #54942A",
"O. c #56992A",
"+. c #589A2B",
"@. c #658342",
"#. c #6D824C",
"$. c #72834C",
"%. c #8C8469",
"&. c #8F886C",
"*. c #938B6E",
"=. c #92866C",
"-. c #95916E",
";. c #968F71",
":. c #9C9474",
">. c #9F9779",
",. c #9E9976",
"<. c #B28368",
"1. c #A19779",
"2. c #A2997A",
"3. c #A89E7E",
"4. c #A9A17F",
"5. c #D7866A",
"6. c #DA8F71",
"7. c #D79D7D",
"8. c #D79375",
"9. c #E09A79",
"0. c #C8A17F",
"q. c #ADA382",
"w. c #B1A784",
"e. c #B2A986",
"r. c #B6AC88",
"t. c #B8AF8B",
"y. c #BDB38E",
"u. c #BFB690",
"i. c #DEA784",
"p. c #D5A987",
"a. c #C0B58F",
"s. c #C1B691",
"d. c #C4BA93",
"f. c #C8BD96",
"g. c #CABF98",
"h. c #DDBA93",
"j. c #E3BB95",
"k. c #E9BC96",
"l. c #CDC39A",
"z. c #D3C79E",
"x. c #DDC79E",
"c. c #D4C99E",
"v. c #E9C59C",
"b. c #D6CAA1",
"n. c #D9CDA4",
"m. c #DDD2A6",
"M. c #DED1A8",
"N. c #E7CBA1",
"B. c #E3D2A7",
"V. c #E2D5A9",
"C. c #E5D9AC",
"Z. c #E9DDAF",
"A. c None",
/* pixels */
"A.A.A.A.A.A.A.A.A.A.A.A.+.O.o.O.O.O.O.O.A.A.A.A.A.A.A.A.A.A.A.A.",
"A.A.A.A.A.A.A.A.A.O.O.A.A.q.r.2.r.r.q.A.8 O.+.A.A.A.A.A.A.A.A.A.",
"A.A.A.A.A.A.A.+.o.A.q.C.Z.Z.b.s.r.l.C.Z.l.r.A.o.O.A.A.A.A.A.A.A.",
"A.A.A.A.A.A.O.A.y.Z.y.y.e.d.y.Z.Z.e.M.q.f.t.Z.y.A.O.A.A.A.A.A.A.",
"A.A.A.A.A.O.A.M.C.l.y.Z.y.Z.y.Z.C.d.Z.s.C.w.b.y.y.A.O.A.A.A.A.A.",
"A.A.A.A.O.A.Z.2.w.Z.y.t.s.Z.t.s.y.a.Z.y.r.l.c.l.e.C.*.O.A.A.A.A.",
"A.A.A.O.A.C.l.t.q.V.C.Z.Z.Z.Z.Z.Z.Z.Z.Z.Z.Z.n.q.s.Z.Z.A.O.A.A.A.",
"A.A.O.A.9.( ( 7.C.Z.Z.Z.Z.Z.Z.{ m 3 w w w w w w t *.M.C.A.O.A.A.",
"A.A...d.' B B C ] ] k.Z.v.[ R H D O                 @ w.d.o.A.A.",
"A.+.A.Z.8.S M N B B k.Z.( F F G H c 1     % 5 2 %     + b.A.+.A.",
"A.X.d.Z.Z.8.l M M Z Z.N.C V D D J Z.s.  % u Z.Z.C.w     y d.o.A.",
"A.@.Z.Z.Z.Z.x l l L Z._ N A B V [ Z.s.  t 1.Z.Z.Z.f.    6 Z.@.A.",
"+.A.Z.Z.Z.Z./ h k ) B.P i.K M B v.Z.s.X 2 ~ C.Z.C.f.    6 Z.A.+.",
"O.w.Z.Z.Z.Z.h.g g 8.C.j.j.l M L C.C.s.X 2 ~ Z.Z.Z.w     y Z.w.+.",
"X.s.Z.Z.Z.Z.Z.n d Y z U ) k k 5.Z.Z.s.    & 7 7 &     + z.Z.s.o.",
"| l.Z.Z.Z.Z.Z.} s s d ` v g j C.Z.Z.s.              + 3.Z.Z.z.| ",
"X.l.Z.Z.Z.Z.Z.V.a p p Q s s U Z.Z.Z.d.    & 0 7 w ^ n.Z.Z.Z.b.| ",
"X.u.Z.Z.Z.Z.Z.Z.I i i b p p p.Z.Z.Z.s.    e C.C.Z.Z.Z.Z.Z.Z.d...",
"O.w.Z.Z.Z.Z.Z.Z.p.: > f i c Z.Z.Z.Z.s.    e Z.Z.Z.Z.Z.Z.Z.Z.e.O.",
"+.A.Z.Z.Z.Z.Z.Z.C.< : > > ! Z.Z.Z.Z.d.    e Z.Z.Z.Z.Z.Z.Z.Z.A.O.",
"A.@.Z.Z.Z.Z.Z.Z.Z.E ; ; : x.Z.Z.Z.Z.s.    e Z.Z.Z.Z.Z.Z.Z.C.@.A.",
"A.X.f.Z.Z.Z.Z.Z.Z.x.W W <.Z.Z.Z.Z.Z.n.u u q.Z.Z.Z.Z.Z.Z.Z.g.o.A.",
"A.O.A.Z.Z.Z.Z.Z.Z.Z.Z.Z.Z.Z.Z.Z.Z.Z.Z.Z.Z.Z.Z.Z.Z.Z.Z.Z.Z.A.O.A.",
"A.A.o.d.Z.Z.Z.4.7 %.%.3.Z.y ;.2.e g.s.6 b.* b.Z.%.Z.Z.Z.g...A.A.",
"A.A.O.#.C.Z.Z.o b.C.Z.z.*.2 Z.Z.:.= t.- z.e * f.^ C.Z.C.$.O.A.A.",
"A.A.A.O.A.Z.Z.o n.C.Z.V.*.4 Z.Z.>.= y.- z.%.u.& 9 Z.C.A.O.A.A.A.",
"A.A.A.A.o.:.Z.:.0 %.&.>.Z.t -.>.0 d.y.4 b.*.Z.l.= Z.1.O.A.A.A.A.",
"A.A.A.A.A.O.A.C.Z.Z.Z.C.Z.Z.Z.Z.Z.Z.Z.Z.Z.Z.Z.C.C.A.O.A.A.A.A.A.",
"A.A.A.A.A.A.O.#.f.n.b.b.b.l.C.q.q.w.z.l.V.M.l.f.A.O.A.A.A.A.A.A.",
"A.A.A.A.A.A.A.O...A.t.n.b.b.l.u.u.u.b.n.M.e.A.o.A.A.A.A.A.A.A.A.",
"A.A.A.A.A.A.A.A.A.O.X.@.A.e.u.u.u.y.e.A.@.o.O.A.A.A.A.A.A.A.A.A.",
"A.A.A.A.A.A.A.A.A.A.A.A.O.O.X.|  .X.O.O.A.A.A.A.A.A.A.A.A.A.A.A."
};
