/* XPM */
static char *_596996577451[] = {
/* columns rows colors chars-per-pixel */
"16 16 133 2 ",
"   c #180E0E",
".  c #1E1412",
"X  c #201413",
"o  c #231917",
"O  c #312722",
"+  c #342924",
"@  c #352A24",
"#  c #3B312A",
"$  c #770403",
"%  c #40352C",
"&  c #42382F",
"*  c #5D5344",
"=  c #66594A",
"-  c #685E4B",
";  c #67624E",
":  c #68634E",
">  c #6A634F",
",  c #706954",
"<  c #716C55",
"1  c #930100",
"2  c #9E0F0B",
"3  c #8C1410",
"4  c #8C1F19",
"5  c #A30C0B",
"6  c #BB0504",
"7  c #B21E18",
"8  c #99241C",
"9  c #81362A",
"0  c #AF2D24",
"q  c #BB3429",
"w  c #B7392E",
"e  c #C90C0A",
"r  c #D10504",
"t  c #DD0000",
"y  c #D40806",
"u  c #C6100C",
"i  c #F21410",
"p  c #DE362A",
"a  c #D23D31",
"s  c #C54B3C",
"d  c #9C5544",
"f  c #B86C58",
"g  c #837861",
"h  c #CE5443",
"j  c #EA5B47",
"k  c #6B9A3F",
"l  c #7E9D52",
"z  c #819F56",
"x  c #829E57",
"c  c #80A155",
"v  c #948B6F",
"b  c #9B9072",
"n  c #9C9175",
"m  c #9F9977",
"M  c #B38065",
"N  c #A29577",
"B  c #A19779",
"V  c #A39B7B",
"C  c #A59D7D",
"Z  c #8AA061",
"A  c #8FA361",
"S  c #92A664",
"D  c #92A867",
"F  c #94A866",
"G  c #98AA67",
"H  c #93A868",
"J  c #99A86A",
"K  c #A7AE79",
"L  c #A9AF7B",
"P  c #ABAF7A",
"I  c #A5B076",
"U  c #AAB078",
"Y  c #A9B17B",
"T  c #ACB07B",
"R  c #ABB07C",
"E  c #CA8E71",
"W  c #D79171",
"Q  c #E78166",
"!  c #ACA181",
"~  c #ADA381",
"^  c #ADA282",
"/  c #ADA482",
"(  c #B3A987",
")  c #B7AD89",
"_  c #B7AC8A",
"`  c #BBAE8A",
"'  c #BCB28D",
"]  c #BDB38F",
"[  c #BEB78E",
"{  c #BEB590",
"}  c #D2A280",
"|  c #D5A482",
" . c #DDA381",
".. c #C0B691",
"X. c #CFB690",
"o. c #C2B990",
"O. c #C2BA93",
"+. c #C4BA93",
"@. c #C5BB94",
"#. c #C6BC94",
"$. c #C7BC96",
"%. c #C8BD95",
"&. c #C8BF97",
"*. c #E5B690",
"=. c #CBC098",
"-. c #CCC099",
";. c #CCC09A",
":. c #CEC49B",
">. c #CDC29C",
",. c #CFC59C",
"<. c #D0C69D",
"1. c #D2C79D",
"2. c #D3C89E",
"3. c #D3C89F",
"4. c #D4CB9E",
"5. c #D3CC9E",
"6. c #D4CD9F",
"7. c #ECC09A",
"8. c #E5CA9F",
"9. c #D5C7A1",
"0. c #D6C9A0",
"q. c #D9CDA3",
"w. c #DFD4A7",
"e. c #EACDA3",
"r. c #E0D5A8",
"t. c #E1D6A9",
"y. c #E2D5AA",
"u. c #E8D5AA",
"i. c #E5D8AD",
"p. c #E6DAAD",
"a. c #E8DBAF",
"s. c #E9DDAF",
"d. c None",
/* pixels */
"d.d.d.d.d.d.l Z A d.d.d.d.d.d.d.",
"d.d.d.d.I @.3.:.&.9.o.P d.d.d.d.",
"d.d.k o.,.$.3.&.&.1.%.>.{ d.d.d.",
"d.d.W } 0.a.s.7.f n n v ^ 4.d.d.",
"d.P a r p e.j i 5 o . @ . & K d.",
"d.w.8.6 u *.y t j * = s._   b d.",
"d.s.s.w q  .h e s.; = s.`   B c ",
"F s.s.E 2 0 7 s s.* . @ X % i.H ",
"S s.s.s.4 8 1 | s.* O n / p.s.D ",
"x s.s.s.d $ 4 s.s.* # s.a.a.s.d.",
"d.u.s.s.X.* f s.s.< , s.s.s.w.d.",
"d.P s.q.V } %.] { ( ( i.9.s.Y d.",
"d.d.6.> r.t.: s.: < V , ! 5.d.d.",
"d.d.d...C ] +..._ ^ &.t.m d.d.d.",
"d.d.d.d.T t.s.&.] s.t.Y d.d.d.d.",
"d.d.d.d.d.d.d.G J x d.d.d.d.d.d."
};
