<?xml version="1.0" encoding="UTF-8" standalone="no"?>
<svg
   xmlns:dc="http://purl.org/dc/elements/1.1/"
   xmlns:cc="http://creativecommons.org/ns#"
   xmlns:rdf="http://www.w3.org/1999/02/22-rdf-syntax-ns#"
   xmlns:svg="http://www.w3.org/2000/svg"
   xmlns="http://www.w3.org/2000/svg"
   xmlns:sodipodi="http://sodipodi.sourceforge.net/DTD/sodipodi-0.dtd"
   xmlns:inkscape="http://www.inkscape.org/namespaces/inkscape"
   inkscape:version="1.0 (4035a4f, 2020-05-01)"
   inkscape:export-ydpi="96"
   inkscape:export-xdpi="96"
   inkscape:export-filename="/Users/emanuelbaciu/Documents/ic-coin-zvpc.png"
   sodipodi:docname="ic-coin-zvpc.svg"
   version="1.1"
   viewBox="0 0 24 24"
   height="24"
   width="24"
   id="ic_zvpc">
  <metadata
     id="metadata22">
    <rdf:RDF>
      <cc:Work
         rdf:about="">
        <dc:format>image/svg+xml</dc:format>
        <dc:type
           rdf:resource="http://purl.org/dc/dcmitype/StillImage" />
      </cc:Work>
    </rdf:RDF>
  </metadata>
  <sodipodi:namedview
     inkscape:current-layer="ic_zvpc"
     inkscape:window-maximized="0"
     inkscape:window-y="23"
     inkscape:window-x="0"
     inkscape:cy="10.736242"
     inkscape:cx="14.723303"
     inkscape:zoom="25.75"
     showgrid="false"
     id="namedview20"
     inkscape:window-height="904"
     inkscape:window-width="1477"
     inkscape:pageshadow="2"
     inkscape:pageopacity="0"
     guidetolerance="10"
     gridtolerance="10"
     objecttolerance="10"
     borderopacity="1"
     bordercolor="#666666"
     pagecolor="#ffffff" />
  <defs
     id="defs12">
    <style
       id="style10"
       type="text/css">
            .cls-1{fill:#55B95D}.cls-2{fill:none}
        </style>
  </defs>
  <g
     id="g900">
    <path
       id="Path_18926"
       d="M 12,2 A 10,10 0 1 0 22,12 10,10 0 0 0 12,2 Z m 0,19.25 A 9.25,9.25 0 1 1 21.25,12 9.25,9.25 0 0 1 12,21.25 Z"
       class="cls-1"
       data-name="Path 18926"
       style="fill:#00ff00" />
    <path
       id="Rectangle_4542"
       d="M0 0h24v24H0z"
       class="cls-2"
       data-name="Rectangle 4542" />
    <circle
       style="fill:#008000;fill-opacity:1;stroke:none;stroke-width:1.15738;stroke-miterlimit:2;stroke-dasharray:none;stroke-opacity:1"
       id="path29"
       cx="12"
       cy="12"
       r="8.6999998" />
    <g
       aria-label="zVPC"
       id="text856"
       style="font-style:normal;font-variant:normal;font-weight:bold;font-stretch:normal;font-size:5.73332999999999959px;line-height:1.25;font-family:sans-serif;-inkscape-font-specification:'sans-serif, Bold';font-variant-ligatures:normal;font-variant-caps:normal;font-variant-numeric:normal;font-variant-east-asian:normal;fill:#ffffff;fill-opacity:1;stroke:none">
      <path
         d="M 7.12331,14.084211 H 4.1698614 V 13.437532 L 5.827152,11.676661 H 4.2370488 v -0.736263 h 2.855467 V 11.57588 L 5.4604205,13.333951 H 7.12331 Z"
         id="path858"
         style="fill:#ffffff" />
      <path
         d="M 11.672461,9.9157895 10.152345,14.084211 H 8.9485694 L 7.4284531,9.9157895 H 8.5566425 L 9.5644544,12.844043 10.572266,9.9157895 Z"
         id="path860"
         style="fill:#ffffff" />
      <path
         d="m 15.712107,11.231544 q 0,0.279948 -0.09798,0.548697 -0.09798,0.265951 -0.279948,0.447917 -0.249153,0.246354 -0.557096,0.37233 -0.305143,0.125977 -0.761458,0.125977 h -0.669075 v 1.357746 H 12.271549 V 9.9157895 h 1.76927 q 0.397526,0 0.669075,0.069987 0.274349,0.067188 0.484309,0.2043616 0.251953,0.165169 0.383529,0.422721 0.134375,0.257552 0.134375,0.618685 z m -1.111393,0.0252 q 0,-0.176367 -0.09518,-0.302343 -0.09518,-0.128776 -0.221159,-0.179167 -0.167968,-0.06719 -0.327539,-0.07279 -0.15957,-0.0084 -0.42552,-0.0084 h -0.184766 v 1.248567 h 0.307943 q 0.274349,0 0.450716,-0.03359 0.179166,-0.03359 0.299544,-0.134375 0.103581,-0.08958 0.148372,-0.21276 0.04759,-0.125976 0.04759,-0.305143 z"
         id="path862"
         style="fill:#ffffff" />
      <path
         d="m 18.354814,14.165396 q -0.464713,0 -0.859439,-0.137174 -0.391927,-0.137175 -0.674674,-0.408724 -0.282748,-0.271549 -0.439518,-0.677473 -0.153972,-0.405925 -0.153972,-0.937825 0,-0.495508 0.148373,-0.898633 0.148372,-0.403124 0.431119,-0.691471 0.271549,-0.277148 0.671875,-0.4283196 0.403125,-0.1511718 0.879036,-0.1511718 0.263151,0 0.473111,0.030794 0.212761,0.027995 0.391927,0.075586 0.187565,0.05319 0.338737,0.1203772 0.153971,0.06439 0.26875,0.120378 v 1.010611 h -0.123177 q -0.07839,-0.06719 -0.198763,-0.15957 -0.117578,-0.09238 -0.26875,-0.181966 -0.153971,-0.08958 -0.333138,-0.151172 -0.179166,-0.06159 -0.383528,-0.06159 -0.226758,0 -0.43112,0.07279 -0.204362,0.06999 -0.377929,0.235156 -0.165169,0.15957 -0.26875,0.422721 -0.100781,0.263151 -0.100781,0.638281 0,0.391927 0.109179,0.655078 0.11198,0.263151 0.279948,0.414322 0.170768,0.153972 0.380729,0.221159 0.209961,0.06439 0.414323,0.06439 0.195963,0 0.386328,-0.05879 0.193164,-0.05879 0.355533,-0.15957 0.137175,-0.08118 0.254753,-0.173568 0.117578,-0.09238 0.193164,-0.15957 h 0.111979 v 0.996614 q -0.156771,0.06999 -0.299544,0.131576 -0.142774,0.06159 -0.299544,0.10638 -0.204362,0.05879 -0.383529,0.08958 -0.179166,0.03079 -0.492708,0.03079 z"
         id="path864"
         style="fill:#ffffff" />
    </g>
  </g>
</svg>
