<?xml version="1.0" encoding="UTF-8" standalone="no"?>
<svg
   xmlns:dc="http://purl.org/dc/elements/1.1/"
   xmlns:cc="http://creativecommons.org/ns#"
   xmlns:rdf="http://www.w3.org/1999/02/22-rdf-syntax-ns#"
   xmlns:svg="http://www.w3.org/2000/svg"
   xmlns="http://www.w3.org/2000/svg"
   xmlns:sodipodi="http://sodipodi.sourceforge.net/DTD/sodipodi-0.dtd"
   xmlns:inkscape="http://www.inkscape.org/namespaces/inkscape"
   inkscape:version="1.0 (4035a4f, 2020-05-01)"
   sodipodi:docname="img-empty-privacy.svg"
   version="1.1"
   viewBox="0 0 100 100"
   height="100"
   width="100"
   id="ic_empty_zvpc">
  <metadata
     id="metadata31">
    <rdf:RDF>
      <cc:Work
         rdf:about="">
        <dc:format>image/svg+xml</dc:format>
        <dc:type
           rdf:resource="http://purl.org/dc/dcmitype/StillImage" />
      </cc:Work>
    </rdf:RDF>
  </metadata>
  <sodipodi:namedview
     inkscape:current-layer="ic_empty_zvpc"
     inkscape:window-maximized="0"
     inkscape:window-y="23"
     inkscape:window-x="0"
     inkscape:cy="48.098623"
     inkscape:cx="53.874893"
     inkscape:zoom="7.35"
     showgrid="false"
     id="namedview29"
     inkscape:window-height="897"
     inkscape:window-width="1502"
     inkscape:pageshadow="2"
     inkscape:pageopacity="0"
     guidetolerance="10"
     gridtolerance="10"
     objecttolerance="10"
     borderopacity="1"
     bordercolor="#666666"
     pagecolor="#ffffff" />
  <defs
     id="defs12">
    <style
       id="style10"
       type="text/css">
            .cls-1{fill:#d6d6d6}.cls-2{fill:#666}.cls-3{fill:none}
        </style>
  </defs>
  <g
     data-name="Group 9083"
     id="Group_9083">
    <path
       data-name="Path 19032"
       class="cls-2"
       d="M 50,31 A 19,19 0 1 0 69,50 19.021,19.021 0 0 0 50,31 Z m 0,36 A 17,17 0 1 1 67,50 17.019,17.019 0 0 1 50,67 Z"
       id="Path_19032" />
    <path
       transform="translate(83,56)"
       data-name="Rectangle 4749"
       class="cls-2"
       d="M 0,0 H 2 V 4 H 0 Z"
       id="Rectangle_4749" />
    <path
       transform="translate(83,44)"
       data-name="Rectangle 4750"
       class="cls-2"
       d="M 0,0 H 2 V 8 H 0 Z"
       id="Rectangle_4750" />
    <path
       transform="translate(15,48)"
       data-name="Rectangle 4751"
       class="cls-2"
       d="M 0,0 H 2 V 8 H 0 Z"
       id="Rectangle_4751" />
    <path
       transform="translate(15,40)"
       data-name="Rectangle 4752"
       class="cls-2"
       d="M 0,0 H 2 V 4 H 0 Z"
       id="Rectangle_4752" />
    <path
       data-name="Path 19033"
       class="cls-2"
       d="M 95.162,71 H 85 v -7 h -2 v 9 h 7.838 L 76,90.456 61.162,73 H 68 V 71 H 63.539 A 24.989,24.989 0 0 0 41.139,26.626 L 24,6.456 4.838,29 H 15 v 7 h 2 V 27 H 9.162 L 24,9.544 38.838,27 H 32 v 2 h 4.461 a 24.989,24.989 0 0 0 22.4,44.374 L 76,93.544 Z M 27,50 A 23,23 0 1 1 50,73 23.026,23.026 0 0 1 27,50 Z"
       id="Path_19033" />
  </g>
  <path
     data-name="Rectangle 4753"
     class="cls-3"
     d="M0 0h100v100H0z"
     id="Rectangle_4753" />
  <g
     id="g104">
    <path
       data-name="Path 19031"
       class="cls-1"
       d="M 50,26 A 24,24 0 1 0 74,50 24,24 0 0 0 50,26 Z m 0,42 A 18,18 0 1 1 68,50 18,18 0 0 1 50,68 Z"
       id="Path_19031" />
    <g
       id="g97">
      <path
         style="stroke-width:0.227749"
         id="Path_19035"
         d="m 37.550049,51.061225 h -2.653842 v 0.391453 h 2.056481 l -2.123029,2.601041 v 0.327098 h 2.75019 v -0.393536 l -2.1116,-0.0093 2.082024,-2.542474 z"
         class="cls-2"
         data-name="Path 19035" />
      <text
         id="text92"
         y="54.693878"
         x="36.870747"
         style="font-style:normal;font-variant:normal;font-weight:normal;font-stretch:normal;font-size:13.3333px;line-height:1.25;font-family:'Arial Unicode MS';-inkscape-font-specification:'Arial Unicode MS, Normal';font-variant-ligatures:normal;font-variant-caps:normal;font-variant-numeric:normal;font-variant-east-asian:normal;fill:#666666;fill-opacity:1;stroke:none"
         xml:space="preserve"><tspan
           style="font-style:normal;font-variant:normal;font-weight:normal;font-stretch:normal;font-size:13.3333px;font-family:'Arial Unicode MS';-inkscape-font-specification:'Arial Unicode MS, Normal';font-variant-ligatures:normal;font-variant-caps:normal;font-variant-numeric:normal;font-variant-east-asian:normal;fill:#666666;fill-opacity:1"
           y="54.693878"
           x="36.870747"
           id="tspan90"
           sodipodi:role="line">VPC</tspan></text>
    </g>
  </g>
</svg>
